<svg width="76" height="75" viewBox="0 0 76 75" fill="none" xmlns="http://www.w3.org/2000/svg">
<path d="M8.83333 74.925C7.65278 74.925 6.66319 74.5298 5.86458 73.7394C5.06597 72.9489 4.66667 71.9694 4.66667 70.801V66.6769H0.5V50.1806C0.5 49.0121 0.899306 48.0326 1.69792 47.2422C2.49653 46.4517 3.48611 46.0565 4.66667 46.0565H8.83333V17.188C8.83333 12.6515 10.4653 8.76797 13.7292 5.53744C16.9931 2.30691 20.9167 0.69165 25.5 0.69165C30.0833 0.69165 34.0069 2.30691 37.2708 5.53744C40.5347 8.76797 42.1667 12.6515 42.1667 17.188V58.4287C42.1667 60.697 42.9826 62.6387 44.6146 64.254C46.2465 65.8693 48.2083 66.6769 50.5 66.6769C52.7917 66.6769 54.7535 65.8693 56.3854 64.254C58.0174 62.6387 58.8333 60.697 58.8333 58.4287V29.5602H54.6667C53.4861 29.5602 52.4965 29.165 51.6979 28.3745C50.8993 27.5841 50.5 26.6046 50.5 25.4361V8.9398H54.6667V4.81573C54.6667 3.64724 55.066 2.66777 55.8646 1.87732C56.6632 1.08687 57.6528 0.69165 58.8333 0.69165H67.1667C68.3472 0.69165 69.3368 1.08687 70.1354 1.87732C70.934 2.66777 71.3333 3.64724 71.3333 4.81573V8.9398H75.5V25.4361C75.5 26.6046 75.1007 27.5841 74.3021 28.3745C73.5035 29.165 72.5139 29.5602 71.3333 29.5602H67.1667V58.4287C67.1667 62.9652 65.5347 66.8487 62.2708 70.0792C59.0069 73.3098 55.0833 74.925 50.5 74.925C45.9167 74.925 41.9931 73.3098 38.7292 70.0792C35.4653 66.8487 33.8333 62.9652 33.8333 58.4287V17.188C33.8333 14.9197 33.0174 12.978 31.3854 11.3627C29.7535 9.74744 27.7917 8.9398 25.5 8.9398C23.2083 8.9398 21.2465 9.74744 19.6146 11.3627C17.9826 12.978 17.1667 14.9197 17.1667 17.188V46.0565H21.3333C22.5139 46.0565 23.5035 46.4517 24.3021 47.2422C25.1007 48.0326 25.5 49.0121 25.5 50.1806V66.6769H21.3333V70.801C21.3333 71.9694 20.934 72.9489 20.1354 73.7394C19.3368 74.5298 18.3472 74.925 17.1667 74.925H8.83333Z" fill="#00417A"/>
</svg>
