<svg width="32" height="32" viewBox="0 0 32 32" fill="none" xmlns="http://www.w3.org/2000/svg">
<path d="M16 0C7.17205 0 0 7.18352 0 16.0256C0 24.0524 5.91093 30.6951 13.6094 31.8535L14.4446 31.9801V19.3519H10.6648V16.7882H14.4446V13.3836C14.4446 11.2871 14.9469 9.90632 15.7784 9.04001C16.6099 8.17371 17.8385 7.7368 19.5483 7.7368C20.9154 7.7368 21.4473 7.81976 21.9531 7.88191V9.98044H20.1733C19.1634 9.98044 18.3349 10.5448 17.9048 11.2965C17.4748 12.0481 17.3409 12.9456 17.3409 13.8602V16.7868H21.794L21.3977 19.3505H17.3409V32L18.1662 31.8876C25.9741 30.827 32 24.1308 32 16.0256C32 7.18352 24.828 0 16 0ZM16 1.45687C24.0419 1.45687 30.5455 7.97087 30.5455 16.0256C30.5455 23.1131 25.4806 28.9421 18.7955 30.2543V20.8074H22.6449L23.4901 15.3299H18.7955V13.8602C18.7955 13.1045 18.9335 12.4273 19.1662 12.0206C19.3989 11.6139 19.6232 11.4373 20.1733 11.4373H23.4077V6.56304L22.777 6.47768C22.3408 6.41856 21.3449 6.27992 19.5483 6.27992C17.5824 6.27992 15.895 6.81631 14.7301 8.02988C13.5653 9.24344 12.9901 11.0505 12.9901 13.3836V15.3313H9.21023V20.8088H12.9901V30.2088C6.41236 28.8132 1.45455 23.0364 1.45455 16.0256C1.45455 7.97087 7.95814 1.45687 16 1.45687Z" fill="#FEFEFE"/>
</svg>
