<svg width="32" height="32" viewBox="0 0 32 32" fill="none" xmlns="http://www.w3.org/2000/svg">
<path fill-rule="evenodd" clip-rule="evenodd" d="M0 16C0.114271 11.4645 1.67585 7.69231 4.68367 4.6837C7.6925 1.67571 11.4645 0.114271 16 -5.04708e-07C20.5355 0.114271 24.3077 1.67571 27.3163 4.6837C30.3241 7.69231 31.8857 11.4645 32 16C31.8857 20.5353 30.3241 24.3074 27.3163 27.3161C24.3077 30.3241 20.5355 31.8855 16 32C11.4645 31.8855 7.6925 30.3241 4.68367 27.3161C1.67585 24.3074 0.114271 20.5353 0 16Z" fill="#7D2119"/>
<path fill-rule="evenodd" clip-rule="evenodd" d="M16 22.38C19.2374 22.339 22.1238 21.4912 24.661 19.8359C27.198 18.1804 29.1301 15.9761 30.4559 13.2239C29.7358 9.7514 28.0599 6.91158 25.4282 4.70409C22.7973 2.48973 19.6547 1.34621 16 1.27192C12.3391 1.34621 9.19315 2.48973 6.56154 4.70409C3.92983 6.91158 2.25474 9.7514 1.53479 13.2239C2.86042 15.9761 4.79173 18.1804 7.32887 19.8359C9.87234 21.4912 12.7627 22.339 16 22.38Z" fill="#7D2119"/>
<path fill-rule="evenodd" clip-rule="evenodd" d="M22.7633 15.4448C22.6694 15.3509 22.5582 15.3035 22.4306 15.3035H13.6781C13.3886 14.3344 12.7294 13.8131 11.6994 13.7388C10.4478 13.8533 9.7648 14.5363 9.65051 15.7878C9.7648 17.0331 10.4478 17.7129 11.6994 17.8271C12.7294 17.753 13.3886 17.2317 13.6781 16.2625H22.2287L25.4991 19.5331C25.593 19.6205 25.7041 19.6639 25.8319 19.6639H31.5757C31.6498 19.3548 31.7136 19.0385 31.7681 18.7152H26.0338L22.7633 15.4448Z" fill="white"/>
<path fill-rule="evenodd" clip-rule="evenodd" d="M22.7634 18.6347C22.6624 18.5402 22.5481 18.4935 22.4203 18.4935H20.0584C19.7689 17.5242 19.1057 17.0021 18.0693 16.9289C16.8241 17.0433 16.1443 17.7261 16.03 18.9779C16.1443 20.2231 16.8241 20.9029 18.0693 21.0172C19.1127 20.9431 19.7751 20.421 20.0584 19.4525H22.2184L25.4889 22.723C25.5828 22.8106 25.694 22.854 25.8218 22.854H30.4456C30.5938 22.5449 30.7349 22.2285 30.8692 21.9053H26.0237L22.7634 18.6347Z" fill="white"/>
<path fill-rule="evenodd" clip-rule="evenodd" d="M22.7634 12.2444C22.6696 12.1505 22.5545 12.1032 22.4204 12.1032H7.28876C6.99925 11.134 6.33924 10.6127 5.30997 10.5386C4.05848 10.6528 3.37465 11.3359 3.26038 12.5882C3.37465 13.8327 4.05848 14.5124 5.30997 14.6269C6.33924 14.5528 6.99925 14.0315 7.28876 13.0622H22.2288L25.489 16.3327C25.5829 16.4203 25.698 16.4643 25.832 16.4643H31.9897V15.5156H26.0238L22.7634 12.2444Z" fill="white"/>
</svg>
