<svg width="32" height="32" viewBox="0 0 32 32" fill="none" xmlns="http://www.w3.org/2000/svg">
<path d="M9.45455 0C4.24181 0 0 4.24181 0 9.45455V22.5455C0 27.7582 4.24181 32 9.45455 32H22.5455C27.7582 32 32 27.7582 32 22.5455V9.45455C32 4.24181 27.7582 0 22.5455 0H9.45455ZM9.45455 1.45455H22.5455C26.972 1.45455 30.5455 5.02801 30.5455 9.45455V22.5455C30.5455 26.972 26.972 30.5455 22.5455 30.5455H9.45455C5.02801 30.5455 1.45455 26.972 1.45455 22.5455V9.45455C1.45455 5.02801 5.02801 1.45455 9.45455 1.45455ZM24.7273 5.81818C24.3415 5.81818 23.9715 5.97143 23.6988 6.24421C23.426 6.51699 23.2727 6.88696 23.2727 7.27273C23.2727 7.6585 23.426 8.02847 23.6988 8.30125C23.9715 8.57403 24.3415 8.72727 24.7273 8.72727C25.113 8.72727 25.483 8.57403 25.7558 8.30125C26.0286 8.02847 26.1818 7.6585 26.1818 7.27273C26.1818 6.88696 26.0286 6.51699 25.7558 6.24421C25.483 5.97143 25.113 5.81818 24.7273 5.81818ZM16 8C11.5903 8 8 11.5903 8 16C8 20.4097 11.5903 24 16 24C20.4097 24 24 20.4097 24 16C24 11.5903 20.4097 8 16 8ZM16 9.45455C19.6236 9.45455 22.5455 12.3764 22.5455 16C22.5455 19.6236 19.6236 22.5455 16 22.5455C12.3764 22.5455 9.45455 19.6236 9.45455 16C9.45455 12.3764 12.3764 9.45455 16 9.45455Z" fill="#FEFEFE"/>
</svg>
