<svg width="176" height="41" viewBox="0 0 176 41" fill="none" xmlns="http://www.w3.org/2000/svg">
<path fill-rule="evenodd" clip-rule="evenodd" d="M8.65112 20.3706C8.75825 16.1185 10.2222 12.5821 13.0421 9.76158C15.8628 6.94158 19.3991 5.47773 23.6511 5.37061C27.9032 5.47773 31.4396 6.94158 34.2601 9.76158C37.08 12.5821 38.544 16.1185 38.6511 20.3706C38.544 24.6224 37.08 28.1588 34.2601 30.9794C31.4396 33.7994 27.9032 35.2632 23.6511 35.3706C19.3991 35.2632 15.8628 33.7994 13.0421 30.9794C10.2222 28.1588 8.75825 24.6224 8.65112 20.3706Z" fill="#7D2119"/>
<path fill-rule="evenodd" clip-rule="evenodd" d="M23.6512 26.3519C26.6863 26.3135 29.3923 25.5187 31.7709 23.9669C34.1493 22.4148 35.9607 20.3483 37.2037 17.7682C36.5285 14.5126 34.9574 11.8503 32.4902 9.78078C30.0237 7.70482 27.0775 6.63278 23.6512 6.56312C20.2191 6.63278 17.2698 7.70482 14.8027 9.78078C12.3354 11.8503 10.765 14.5126 10.0901 17.7682C11.3329 20.3483 13.1435 22.4148 15.522 23.9669C17.9065 25.5187 20.6162 26.3135 23.6512 26.3519Z" fill="#7D2119"/>
<path fill-rule="evenodd" clip-rule="evenodd" d="M29.992 19.8501C29.9039 19.7621 29.7997 19.7176 29.68 19.7176H21.4746C21.2032 18.8091 20.5852 18.3204 19.6195 18.2507C18.4462 18.358 17.8059 18.9984 17.6987 20.1717C17.8059 21.3391 18.4462 21.9764 19.6195 22.0835C20.5852 22.0141 21.2032 21.5254 21.4746 20.6167H29.4908L32.5568 23.6829C32.6448 23.7648 32.7489 23.8055 32.8687 23.8055H38.2536C38.3231 23.5158 38.3829 23.2192 38.434 22.9161H33.058L29.992 19.8501Z" fill="#DFDFDF"/>
<path fill-rule="evenodd" clip-rule="evenodd" d="M29.9917 22.8406C29.8971 22.752 29.7899 22.7083 29.6701 22.7083H27.4558C27.1844 21.7996 26.5626 21.3101 25.5911 21.2414C24.4236 21.3488 23.7863 21.9889 23.6792 23.1624C23.7863 24.3298 24.4236 24.9671 25.5911 25.0742C26.5692 25.0048 27.1902 24.5153 27.4558 23.6074H29.4808L32.5469 26.6735C32.6349 26.7556 32.7392 26.7963 32.859 26.7963H37.1938C37.3327 26.5065 37.465 26.2099 37.5909 25.9069H33.0483L29.9917 22.8406Z" fill="#DFDFDF"/>
<path fill-rule="evenodd" clip-rule="evenodd" d="M29.9919 16.8497C29.9039 16.7617 29.796 16.7174 29.6703 16.7174H15.4844C15.213 15.8087 14.5942 15.32 13.6293 15.2505C12.456 15.3577 11.8149 15.998 11.7078 17.172C11.8149 18.3387 12.456 18.976 13.6293 19.0833C14.5942 19.0139 15.213 18.5252 15.4844 17.6164H29.4907L32.5471 20.6825C32.6351 20.7646 32.743 20.8059 32.8687 20.8059H38.6415V19.9165H33.0485L29.9919 16.8497Z" fill="#DFDFDF"/>
<path d="M61.4858 20.8301C61.454 20.6842 61.4008 20.2681 61.3276 19.5826C61.2588 19.0184 61.2011 18.5518 61.1541 18.1825C61.0788 18.6242 60.9741 19.065 60.8379 19.5067C60.6995 19.9476 60.5293 20.3973 60.3241 20.8558L55.5978 31.2001L50.8641 20.6434C50.6685 20.2149 50.4964 19.795 50.3502 19.3877C50.2081 18.9804 50.0837 18.5797 49.9789 18.1825C49.9669 18.5898 49.9355 19.0184 49.8839 19.4637C49.8308 19.9054 49.7519 20.3695 49.6472 20.8558L47.7028 30.4192H45L49.2754 10.1888L54.6101 22.4339C54.689 22.6331 54.8118 22.9579 54.9814 23.4098C55.1552 23.8574 55.3607 24.4113 55.5978 25.0735C55.7719 24.5193 56.0425 23.8129 56.4122 22.9516C56.5108 22.7267 56.5857 22.5506 56.6333 22.4259L61.8414 10.1888L66.2195 30.4192H63.4853L61.4858 20.8301ZM77.5489 24.1736C77.5489 23.009 77.1969 22.0221 76.4978 21.2119C75.8024 20.4039 74.9486 19.9987 73.9371 19.9987C72.9294 19.9987 72.0737 20.4039 71.3686 21.2119C70.6672 22.0221 70.3177 23.009 70.3177 24.1736C70.3177 25.3406 70.6672 26.3268 71.3686 27.1349C72.0737 27.9457 72.9294 28.3488 73.9371 28.3488C74.937 28.3488 75.7884 27.9457 76.4898 27.1349C77.1949 26.3268 77.5489 25.3406 77.5489 24.1736ZM67.4882 24.1479C67.4882 23.2274 67.648 22.358 67.9703 21.5433C68.2965 20.7242 68.7643 19.9965 69.3768 19.3623C69.9776 18.7343 70.6672 18.2548 71.4476 17.9196C72.232 17.5802 73.0539 17.4103 73.9134 17.4103C74.7924 17.4103 75.6204 17.5802 76.3947 17.9196C77.1732 18.2548 77.8726 18.7489 78.4892 19.4045C79.1059 20.0498 79.5742 20.7792 79.8958 21.5938C80.2161 22.4046 80.3779 23.2551 80.3779 24.1479C80.3779 25.0771 80.22 25.9473 79.9039 26.7619C79.5878 27.5721 79.1234 28.289 78.5129 28.9174C77.8687 29.5854 77.1574 30.0884 76.3791 30.4279C75.5987 30.7673 74.7768 30.9366 73.9134 30.9366C73.0636 30.9366 72.2478 30.7673 71.4632 30.4279C70.6828 30.0884 69.9873 29.5962 69.3768 28.9511C68.7607 28.2956 68.2903 27.5596 67.9703 26.745C67.648 25.9303 67.4882 25.0648 67.4882 24.1479ZM72.0954 15.9422L74.4429 12.3355H77.2166L73.6128 15.9422H72.0954ZM91.6263 24.0974C91.6263 22.7967 91.3436 21.785 90.7805 21.0594C90.2156 20.336 89.429 19.9732 88.4174 19.9732C87.4058 19.9732 86.6098 20.3462 86.0307 21.0929C85.45 21.8397 85.1612 22.8754 85.1612 24.199C85.1612 25.5355 85.4398 26.5646 85.9993 27.2881C86.5561 28.0136 87.3468 28.3743 88.37 28.3743C89.338 28.3743 90.1245 27.9839 90.7249 27.2028C91.3258 26.4225 91.6263 25.3872 91.6263 24.0974ZM91.555 9.86674H94.2341V30.4192H91.555V28.7899C91.0748 29.5154 90.5155 30.0541 89.8797 30.4109C89.2413 30.7607 88.5121 30.9366 87.6902 30.9366C86.0347 30.9366 84.7307 30.3301 83.7784 29.1123C82.83 27.8969 82.356 26.2335 82.356 24.1231C82.356 22.1157 82.8401 20.4951 83.8102 19.26C84.7839 18.0278 86.0545 17.4103 87.6192 17.4103C88.5718 17.4103 89.3895 17.6269 90.0694 18.0554C90.7487 18.4861 91.2428 19.103 91.555 19.9054V9.86674ZM100.537 17.8517V24.929C100.537 26.151 100.77 27.029 101.24 27.5596C101.708 28.0853 102.469 28.3488 103.524 28.3488C104.577 28.3488 105.338 28.0853 105.808 27.5596C106.277 27.029 106.511 26.151 106.511 24.929V17.8517H109.191V24.0719C109.191 26.4779 108.74 28.2211 107.839 29.3073C106.942 30.3935 105.512 30.9366 103.548 30.9366C101.544 30.9366 100.094 30.4001 99.1935 29.3247C98.2962 28.2444 97.8496 26.4946 97.8496 24.0719V17.8517H100.537ZM112.931 30.4192V9.86674H115.61V30.4192H112.931ZM128.622 24.1736C128.622 23.009 128.271 22.0221 127.571 21.2119C126.876 20.4039 126.022 19.9987 125.011 19.9987C124.003 19.9987 123.147 20.4039 122.442 21.2119C121.741 22.0221 121.391 23.009 121.391 24.1736C121.391 25.3406 121.741 26.3268 122.442 27.1349C123.147 27.9457 124.003 28.3488 125.011 28.3488C126.01 28.3488 126.862 27.9457 127.563 27.1349C128.269 26.3268 128.622 25.3406 128.622 24.1736ZM118.562 24.1479C118.562 23.2274 118.722 22.358 119.044 21.5433C119.37 20.7242 119.838 19.9965 120.451 19.3623C121.051 18.7343 121.741 18.2548 122.521 17.9196C123.305 17.5802 124.128 17.4103 124.987 17.4103C125.866 17.4103 126.694 17.5802 127.468 17.9196C128.247 18.2548 128.946 18.7489 129.563 19.4045C130.179 20.0498 130.647 20.7792 130.97 21.5938C131.29 22.4046 131.452 23.2551 131.452 24.1479C131.452 25.0771 131.293 25.9473 130.977 26.7619C130.661 27.5721 130.197 28.289 129.586 28.9174C128.942 29.5854 128.231 30.0884 127.453 30.4279C126.672 30.7673 125.85 30.9366 124.987 30.9366C124.137 30.9366 123.321 30.7673 122.537 30.4279C121.757 30.0884 121.061 29.5962 120.451 28.9511C119.834 28.2956 119.364 27.5596 119.044 26.745C118.722 25.9303 118.562 25.0648 118.562 24.1479ZM149.022 15.7299C148.194 14.9663 147.317 14.3955 146.39 14.0159C145.462 13.6385 144.488 13.4474 143.466 13.4474C141.491 13.4474 139.882 14.1305 138.646 15.4927C137.406 16.8504 136.788 18.6132 136.788 20.7792C136.788 22.8733 137.391 24.6018 138.598 25.964C139.803 27.3284 141.325 28.0094 143.158 28.0094C144.227 28.0094 145.246 27.8057 146.216 27.3984C147.184 26.9911 148.113 26.378 148.998 25.5567V29.121C148.208 29.732 147.347 30.1883 146.414 30.487C145.485 30.7862 144.48 30.9366 143.395 30.9366C142.008 30.9366 140.728 30.6928 139.554 30.2072C138.385 29.7212 137.353 29.0065 136.464 28.0605C135.583 27.1334 134.907 26.0385 134.433 24.7762C133.963 23.5157 133.73 22.1753 133.73 20.7535C133.73 19.3279 133.963 17.992 134.433 16.7401C134.907 15.4904 135.595 14.3939 136.496 13.4474C137.391 12.4931 138.418 11.7712 139.578 11.2837C140.736 10.7915 141.992 10.5456 143.348 10.5456C144.407 10.5456 145.418 10.7128 146.383 11.0456C147.347 11.3749 148.281 11.8755 149.188 12.5478L149.022 15.7299ZM163.485 30.4192H160.806V28.7899C160.326 29.5154 159.766 30.0541 159.13 30.4109C158.492 30.7607 157.763 30.9366 156.941 30.9366C155.285 30.9366 153.981 30.3301 153.029 29.1123C152.081 27.8969 151.607 26.2335 151.607 24.1231C151.607 22.1157 152.091 20.4951 153.061 19.26C154.034 18.0278 155.305 17.4103 156.87 17.4103C157.822 17.4103 158.64 17.6269 159.32 18.0554C159.999 18.4861 160.493 19.103 160.806 19.9054V17.8517H163.485V30.4192ZM160.877 24.0974C160.877 22.7967 160.594 21.785 160.031 21.0594C159.466 20.336 158.68 19.9732 157.668 19.9732C156.656 19.9732 155.86 20.3462 155.281 21.0929C154.701 21.8397 154.412 22.8754 154.412 24.199C154.412 25.5355 154.69 26.5646 155.25 27.2881C155.807 28.0136 156.597 28.3743 157.621 28.3743C158.585 28.3743 159.367 27.9816 159.968 27.1947C160.572 26.41 160.877 25.3764 160.877 24.0974ZM169.916 19.8542C170.204 19.0228 170.588 18.4095 171.062 18.0132C171.536 17.6118 172.123 17.4103 172.824 17.4103C173.204 17.4103 173.575 17.4614 173.939 17.5628C174.306 17.6606 174.667 17.7985 175.021 17.9788L174.057 20.4228C173.824 20.249 173.575 20.1177 173.306 20.0324C173.042 19.9476 172.745 19.9054 172.413 19.9054C171.522 19.9054 170.882 20.287 170.493 21.0507C170.108 21.8149 169.916 23.1003 169.916 24.9033V30.4192H167.237V17.8263H169.916" fill="#DFDFDF"/>
</svg>
