<svg width="84" height="80" viewBox="0 0 84 80" fill="none" xmlns="http://www.w3.org/2000/svg">
<path d="M77.8333 79.0491L58.2499 59.666C55.4027 61.8655 52.2603 63.5838 48.8228 64.8211C45.3853 66.0583 41.7221 66.6769 37.8333 66.6769C31.5833 66.6769 25.9409 65.1647 20.9062 62.1404C15.8714 59.1161 11.8958 55.1295 8.97909 50.1806H19.1874C21.5485 52.7238 24.3089 54.7342 27.4687 56.212C30.6284 57.6898 34.0833 58.4287 37.8333 58.4287C44.7777 58.4287 50.6805 56.023 55.5416 51.2116C60.4027 46.4002 62.8333 40.5577 62.8333 33.6843C62.8333 26.8108 60.4027 20.9684 55.5416 16.1569C50.6805 11.3455 44.7777 8.93981 37.8333 8.93981C31.3055 8.93981 25.6631 11.1221 20.9062 15.4868C16.1492 19.8514 13.493 25.2299 12.9374 31.6222H4.60409C5.15964 22.8929 8.6145 15.5555 14.9687 9.60997C21.3228 3.66442 28.9444 0.69165 37.8333 0.69165C47.1388 0.69165 55.0208 3.88781 61.4791 10.2801C67.9374 16.6725 71.1666 24.4738 71.1666 33.6843C71.1666 37.5334 70.5416 41.1592 69.2916 44.5615C68.0416 47.9639 66.3055 51.0741 64.0833 53.8922L83.6666 73.2754L77.8333 79.0491ZM33.3541 50.1806L26.7916 28.7354L21.3749 43.9945H0.333252V37.8083H16.9999L23.8749 18.219H30.1249L36.4791 39.2518L40.9583 25.4361H47.2083L53.4583 37.8083H56.5833V43.9945H49.6041L44.7083 34.3029L39.4999 50.1806H33.3541Z" fill="#00417A"/>
</svg>
