<svg width="67" height="84" viewBox="0 0 67 84" fill="none" xmlns="http://www.w3.org/2000/svg">
<path d="M29.1251 56.5729L52.6667 33.2719L46.7292 27.3951L29.1251 44.8193L20.3751 36.1587L14.4376 42.0355L29.1251 56.5729ZM33.5001 83.1732C23.8473 80.7675 15.8786 75.2859 9.59383 66.7284C3.30911 58.171 0.166748 48.6684 0.166748 38.2208V13.0639L33.5001 0.69165L66.8334 13.0639V38.2208C66.8334 48.6684 63.6911 58.171 57.4063 66.7284C51.1216 75.2859 43.1529 80.7675 33.5001 83.1732ZM33.5001 74.5126C40.7223 72.2444 46.6945 67.7079 51.4167 60.9032C56.139 54.0985 58.5001 46.5376 58.5001 38.2208V18.7345L33.5001 9.45531L8.50008 18.7345V38.2208C8.50008 46.5376 10.8612 54.0985 15.5834 60.9032C20.3056 67.7079 26.2779 72.2444 33.5001 74.5126Z" fill="#00417A"/>
</svg>
