<svg width="33" height="24" viewBox="0 0 33 24" fill="none" xmlns="http://www.w3.org/2000/svg">
<path d="M32.0476 12C32.0476 16.4133 30.2609 20.4133 27.3809 23.3333L25.9409 21.8933C28.4743 19.3333 30.0476 15.8667 30.0476 12C30.0476 8.14667 28.4743 4.66667 25.9409 2.10667L27.3809 0.666667C30.2609 3.58667 32.0476 7.58667 32.0476 12ZM26.7143 8.8V6.66667H22.4476C21.2743 6.66667 20.3143 7.62667 20.3143 8.8V10.9333C20.3143 11.4991 20.539 12.0418 20.9391 12.4418C21.3392 12.8419 21.8818 13.0667 22.4476 13.0667H24.5809V15.2H20.3143V17.3333H24.5809C25.7543 17.3333 26.7143 16.3733 26.7143 15.2V13.0667C26.7143 12.5009 26.4895 11.9582 26.0894 11.5582C25.6894 11.1581 25.1467 10.9333 24.5809 10.9333H22.4476V8.8H26.7143ZM11.2743 4C12.6743 3.16 14.3009 2.66667 16.0476 2.66667C17.7943 2.66667 19.4209 3.16 20.8209 4H24.9676C22.7809 1.54667 19.5943 0 16.0476 0C12.5009 0 9.31427 1.54667 7.12761 4H11.2743ZM17.6476 12C18.5009 12 19.2476 12.7467 19.2476 13.6V15.2C19.2476 15.7658 19.0228 16.3084 18.6228 16.7085C18.2227 17.1086 17.6801 17.3333 17.1143 17.3333H12.8476V6.66667H17.1143C17.6801 6.66667 18.2227 6.89143 18.6228 7.29151C19.0228 7.69158 19.2476 8.23421 19.2476 8.8V10.4C19.2476 11.2533 18.5009 12 17.6476 12ZM17.1143 13.0667H14.9809V15.2H17.1143V13.0667ZM17.1143 8.8H14.9809V10.9333H17.1143V8.8ZM6.15427 2.10667L4.71427 0.666667C1.83427 3.58667 0.0476074 7.58667 0.0476074 12C0.0476074 16.4133 1.83427 20.4133 4.71427 23.3333L6.15427 21.8933C3.62094 19.3333 2.04761 15.8667 2.04761 12C2.04761 8.14667 3.62094 4.66667 6.15427 2.10667ZM9.64761 17.3333V13.0667H7.51427V17.3333H5.38094V8.8C5.38094 8.23421 5.6057 7.69158 6.00578 7.29151C6.40586 6.89143 6.94848 6.66667 7.51427 6.66667H9.64761C10.8209 6.66667 11.7809 7.62667 11.7809 8.8V17.3333H9.64761ZM9.64761 10.9333V8.8H7.51427V10.9333H9.64761ZM20.8209 20C19.4209 20.84 17.7943 21.3333 16.0476 21.3333C14.3009 21.3333 12.6743 20.84 11.2743 20H7.12761C9.31427 22.4533 12.5009 24 16.0476 24C19.5943 24 22.7809 22.4533 24.9676 20H20.8209Z" fill="#BABABA"/>
</svg>
