<svg width="23" height="28" viewBox="0 0 23 28" fill="none" xmlns="http://www.w3.org/2000/svg">
<path d="M14.0477 8.94678C14.0477 9.82226 13.8753 10.6892 13.5402 11.498C13.2052 12.3068 12.7141 13.0418 12.0951 13.6608C11.476 14.2799 10.7411 14.7709 9.93225 15.106C9.12341 15.441 8.2565 15.6134 7.38102 15.6134C5.61291 15.6134 3.91722 14.9111 2.66698 13.6608C1.41673 12.4106 0.714355 10.7149 0.714355 8.94678C0.714355 7.17867 1.41673 5.48298 2.66698 4.23273C3.91722 2.98249 5.61291 2.28011 7.38102 2.28011C8.2565 2.28011 9.12341 2.45255 9.93225 2.78758C10.7411 3.12261 11.476 3.61368 12.0951 4.23273C12.7141 4.85179 13.2052 5.58672 13.5402 6.39555C13.8753 7.20439 14.0477 8.0713 14.0477 8.94678ZM9.32769 19.0134L12.7144 22.3201L10.0477 22.3468L5.38102 27.0534L3.38102 25.0668L9.32769 19.0134ZM18.0477 0.946777C19.4877 0.946777 20.7144 2.12011 20.7144 3.61344C20.7144 5.05344 19.541 6.28011 18.0477 6.28011C16.6077 6.28011 15.381 5.10678 15.381 3.61344C15.381 2.17344 16.5677 0.946777 18.0477 0.946777ZM14.5944 18.2801H10.8344L18.4344 25.8934L20.3277 24.0001L14.5944 18.2801ZM15.541 17.3334L21.261 23.0668L21.5544 23.3468C21.861 22.8401 22.0477 22.2801 22.0477 21.6134V10.9468C22.0477 10.0627 21.6965 9.21488 21.0714 8.58976C20.4463 7.96463 19.5984 7.61344 18.7144 7.61344C17.8303 7.61344 16.9825 7.96463 16.3573 8.58976C15.7322 9.21488 15.381 10.0627 15.381 10.9468V17.1734L15.541 17.3334Z" fill="#BABABA"/>
</svg>
