<svg width="37" height="29" viewBox="0 0 37 29" fill="none" xmlns="http://www.w3.org/2000/svg">
<path d="M14.5 28C21.9558 28 28 21.9558 28 14.5C28 7.04416 21.9558 1 14.5 1C7.04416 1 1 7.04416 1 14.5C1 21.9558 7.04416 28 14.5 28Z" stroke="#999999" stroke-width="2"/>
<path d="M14.4998 26.2581C20.9936 26.2581 26.2578 20.9938 26.2578 14.5C26.2578 8.00621 20.9936 2.74194 14.4998 2.74194C8.00596 2.74194 2.7417 8.00621 2.7417 14.5C2.7417 20.9938 8.00596 26.2581 14.4998 26.2581Z" stroke="#999999" stroke-width="2"/>
<path d="M3.17773 17.7225C3.74386 17.5919 4.30999 17.5483 4.91967 17.5483C9.23096 17.5483 12.7584 20.7709 12.7584 24.7338C12.7584 25.2129 12.7148 25.6483 12.6277 26.0838" stroke="#999999" stroke-width="2"/>
<path d="M26.2147 13.4547C23.2098 11.4079 19.0727 10.145 14.5002 10.145C9.92758 10.145 5.79048 11.4079 2.78564 13.4547" stroke="#999999" stroke-width="2"/>
<path d="M16.3728 26.0838C16.2857 25.6483 16.2422 25.1693 16.2422 24.7338C16.2422 20.7709 19.7696 17.5483 24.0809 17.5483C24.6906 17.5483 25.2567 17.5919 25.8228 17.7225" stroke="#999999" stroke-width="2"/>
<path d="M14.4998 15.8065C15.2213 15.8065 15.8063 15.2216 15.8063 14.5001C15.8063 13.7785 15.2213 13.1936 14.4998 13.1936C13.7783 13.1936 13.1934 13.7785 13.1934 14.5001C13.1934 15.2216 13.7783 15.8065 14.4998 15.8065Z" stroke="#999999" stroke-width="2"/>
<path d="M34.5 1C33.6896 1 32.9485 1.644 33.0028 2.4L33.7514 21.3C33.7514 21.4857 33.8303 21.6637 33.9707 21.795C34.1111 21.9263 34.3015 22 34.5 22C34.6985 22 34.8889 21.9263 35.0293 21.795C35.1697 21.6637 35.2486 21.4857 35.2486 21.3L35.9972 2.4C36.0515 1.644 35.3104 1 34.5 1Z" stroke="#999999" stroke-width="2" stroke-linecap="round" stroke-linejoin="round"/>
<path d="M35 27.5C35 27.7761 34.7761 28 34.5 28C34.2239 28 34 27.7761 34 27.5C34 27.2239 34.2239 27 34.5 27C34.7761 27 35 27.2239 35 27.5Z" fill="#999999" stroke="#999999" stroke-width="2" stroke-linecap="round" stroke-linejoin="round"/>
</svg>
