<svg width="33" height="24" viewBox="0 0 33 24" fill="none" xmlns="http://www.w3.org/2000/svg">
<path d="M15.381 16H18.0477V18.6667H15.381V16ZM15.381 5.33333H18.0477V13.3333H15.381V5.33333ZM16.7144 0C13.5318 0 10.4795 1.26428 8.22907 3.51472C5.97864 5.76515 4.71436 8.8174 4.71436 12C4.71436 15.1826 5.97864 18.2348 8.22907 20.4853C10.4795 22.7357 13.5318 24 16.7144 24C19.897 24 22.9492 22.7357 25.1996 20.4853C27.4501 18.2348 28.7144 15.1826 28.7144 12C28.7144 8.8174 27.4501 5.76515 25.1996 3.51472C22.9492 1.26428 19.897 0 16.7144 0ZM16.7144 21.3333C11.5677 21.3333 7.38102 17.1467 7.38102 12C7.38102 6.85333 11.5677 2.66667 16.7144 2.66667C21.861 2.66667 26.0477 6.85333 26.0477 12C26.0477 17.1467 21.861 21.3333 16.7144 21.3333ZM28.0477 23.3333C30.9277 20.4133 32.7144 16.4133 32.7144 12C32.7144 7.58667 30.9277 3.58667 28.0477 0.666667L26.6077 2.10667C29.141 4.66667 30.7144 8.14667 30.7144 12C30.7144 15.8667 29.141 19.3333 26.6077 21.8933L28.0477 23.3333ZM6.82102 21.8933C4.28769 19.3333 2.71436 15.8667 2.71436 12C2.71436 8.14667 4.28769 4.66667 6.82102 2.10667L5.38102 0.666667C2.50102 3.58667 0.714355 7.58667 0.714355 12C0.714355 16.4133 2.50102 20.4133 5.38102 23.3333L6.82102 21.8933Z" fill="#BABABA"/>
</svg>
