<svg width="28" height="26" viewBox="0 0 28 26" fill="none" xmlns="http://www.w3.org/2000/svg">
<path d="M5.9467 25.1447C4.3926 25.0555 4.28208 25.0258 4.11073 24.6306C4.05974 24.5141 3.8002 23.7136 3.53397 22.8535L3.04991 21.2898L2.56358 20.5616C2.03777 19.7742 1.42832 18.5755 1.09514 17.6734C0.839989 16.9824 0.536786 15.7799 0.415929 14.9797C0.270558 14.0169 0.242123 12.5211 0.354535 11.7488C0.67651 9.53623 1.49717 7.47292 2.76691 5.68389C3.45912 4.70857 3.51299 4.53554 3.67224 2.77554C3.79434 1.42606 3.82792 1.29166 4.10944 1.02537C4.37023 0.778515 4.5204 0.752458 5.67694 0.752687C6.71156 0.752916 6.77484 0.752687 6.97999 0.882973C7.38705 1.1296 7.41552 1.22286 7.415 2.31063C7.41443 3.41417 7.34833 3.78834 7.0482 4.38652C6.94017 4.60137 6.16992 5.70217 5.33653 6.83177C4.50315 7.9616 3.7522 9.01326 3.66776 9.16914C3.30592 9.83726 3.0048 11.3106 2.9554 12.6551C2.85295 15.443 3.86032 18.2048 5.75677 20.3355C6.03425 20.6473 6.39077 21.0107 6.54903 21.1433L6.83678 21.3842H14.0198H21.2029L21.6576 20.9449C24.0273 18.6558 25.2506 15.5175 25.0388 12.2706C24.9577 11.0274 24.608 9.5696 24.2593 9.02126C24.1679 8.87726 23.456 7.89531 22.6773 6.83886C21.0478 4.62811 20.9694 4.50789 20.7567 3.89783C20.6058 3.46537 20.5985 3.39543 20.5967 2.38606C20.5948 1.40389 20.6035 1.31634 20.7117 1.17074C20.9921 0.794515 21.0386 0.781944 22.2283 0.762058C23.3998 0.739201 23.6254 0.784916 23.904 1.01006C24.1602 1.22492 24.2365 1.53074 24.3354 2.73577C24.4806 4.50286 24.5352 4.66971 25.3609 5.86629C26.5191 7.54514 27.2484 9.34286 27.5939 11.3712C27.8051 12.6114 27.7334 14.4711 27.4173 15.9403C27.0912 17.4562 26.3102 19.2818 25.4226 20.6027L24.9508 21.3047L24.4464 22.9374C24.169 23.8352 23.8979 24.6425 23.8438 24.7314C23.6701 25.0169 23.5138 25.0555 22.2634 25.1214C21.6262 25.1557 20.92 25.1968 20.694 25.2151L20.283 25.2471V24.5337V23.8203H19.8012H19.3194V24.5003V25.1806H17.8741H16.4287V24.5003V23.8203H15.9469H15.4651V24.5003V25.1806H14.0197H12.5743V24.5003V23.8203H12.0925H11.6107V24.5003V25.1806H10.1653H8.71994V24.5003V23.8203H8.23814H7.75635V24.5287V25.2373H7.5438C7.42688 25.2373 6.70822 25.1938 5.94675 25.1504L5.9467 25.1447ZM13.3289 19.8658C12.7467 19.6578 12.3111 19.2558 12.0529 18.6878C11.9507 18.4638 11.9257 18.3045 11.9242 17.8704C11.9227 17.4025 11.9423 17.2894 12.0743 17.0078C12.2751 16.5797 12.6647 16.1719 13.0687 15.9675C13.3686 15.8167 13.4462 15.803 13.9913 15.8007C14.5181 15.8005 14.6236 15.8235 14.9093 15.9515C15.3051 16.1367 15.69 16.5122 15.8974 16.9147C16.0272 17.1666 16.0571 17.3072 16.0761 17.7557C16.0944 18.208 16.0784 18.3467 15.9755 18.6222C15.8023 19.0821 15.3468 19.5618 14.8857 19.7696C14.418 19.9799 13.7654 20.0203 13.3288 19.8633L13.3289 19.8658ZM13.2123 14.3525C12.7875 14.1856 12.3333 13.7477 12.108 13.2901L11.9224 12.9131V8.17897V3.4448L12.1012 3.06743C12.5386 2.14446 13.5383 1.66332 14.5046 1.91086C15.1324 2.07086 15.5899 2.43932 15.9044 3.03612L16.0601 3.33143V8.17783V13.0242L15.9008 13.3266C15.6965 13.7145 15.3291 14.0807 14.9456 14.2786C14.6855 14.4135 14.5635 14.4363 14.0763 14.4523C13.6083 14.4752 13.4577 14.4507 13.2123 14.3525Z" fill="#BABABA"/>
</svg>
